<?xml version="1.0" standalone="no"?>
<!DOCTYPE svg PUBLIC "-//W3C//DTD SVG 20010904//EN"
 "http://www.w3.org/TR/2001/REC-SVG-20010904/DTD/svg10.dtd">
<svg version="1.0" xmlns="http://www.w3.org/2000/svg"
 width="125.000000pt" height="125.000000pt" viewBox="0 0 125.000000 125.000000"
 preserveAspectRatio="xMidYMid meet">
<metadata>
Created by potrace 1.14, written by Peter Selinger 2001-2017
</metadata>
<g transform="translate(0.000000,125.000000) scale(0.100000,-0.100000)"
fill="#000000" stroke="none">
<path d="M443 1230 c-18 -10 -45 -38 -60 -61 l-28 -43 -3 -560 -2 -561 362 3
c362 3 363 3 403 27 44 25 82 73 112 140 16 36 18 73 18 340 l0 300 -26 55
c-56 120 -118 160 -245 160 -98 0 -115 10 -153 94 -17 39 -43 74 -67 94 l-39
32 -120 0 c-101 0 -125 -3 -152 -20z m98 -122 l22 -43 16 35 c9 19 20 38 26
42 15 11 73 10 80 -2 3 -5 -9 -38 -27 -72 l-33 -63 -55 -2 c-30 -2 -60 1 -66
5 -6 4 -25 35 -42 69 -34 66 -32 71 25 72 29 1 35 -4 54 -41z m76 -179 c66
-25 108 -90 120 -186 l6 -54 -64 3 -64 3 -6 43 c-7 52 -18 65 -55 60 -50 -6
-55 -29 -52 -279 3 -207 5 -229 22 -248 38 -42 82 -15 88 54 l3 40 60 0 60 0
-1 -52 c-2 -64 -35 -135 -76 -165 -40 -28 -121 -35 -169 -15 -46 19 -84 69
-99 127 -7 30 -10 131 -8 295 l3 250 28 48 c43 73 128 105 204 76z m443 -34
c15 -8 39 -31 52 -52 23 -38 23 -41 23 -338 0 -272 -2 -303 -19 -337 -51 -105
-183 -102 -235 4 -20 42 -21 58 -21 329 0 255 2 288 19 325 35 77 110 106 181
69z"/>
<path d="M0 545 l0 -405 65 0 65 0 0 165 0 165 60 0 60 0 0 75 0 75 -60 0 -60
0 0 95 0 94 103 3 102 3 3 44 c2 25 1 55 -3 68 -5 23 -6 23 -170 23 l-165 0 0
-405z"/>
</g>
</svg>
