<?xml version="1.0" encoding="utf-8"?>
<!-- Generator: Adobe Illustrator 26.2.1, SVG Export Plug-In . SVG Version: 6.00 Build 0)  -->
<svg version="1.1" id="Layer_1" xmlns="http://www.w3.org/2000/svg" xmlns:xlink="http://www.w3.org/1999/xlink" x="0px" y="0px"
	 viewBox="0 0 766.1 171.3" style="enable-background:new 0 0 766.1 171.3;" xml:space="preserve">
<style type="text/css">
	.st0{fill:#D90F15;}
	.st1{enable-background:new    ;}
	.st2{fill:#FFFFFF;}
</style>
<path id="Subtraction_1" class="st0" d="M715.3,158H402.2c-5.6,0-10.2-4.5-10.2-10.2V36.2c0-13.4,10.9-24.3,24.3-24.3h57.6
	c9.8,0,18.6,5.8,22.4,14.8c0.4,0.9,0.8,1.8,1.3,2.7c1.2,2.1,3.5,5.7,5.8,6.8c2.4,1.1,5,1.7,7.6,1.8h204.3
	c19.2,0,34.7,15.6,34.8,34.7v50.6C750.1,142.4,734.5,157.9,715.3,158z M713.4,50.9c-11.8,0-21.4,9.6-21.4,21.4v55.1
	c0.2,11.8,9.9,21.3,21.7,21.1c11.6-0.1,21-9.5,21.1-21.1V72.3C734.7,60.5,725.2,50.9,713.4,50.9L713.4,50.9z"/>
<g class="st1">
	<path class="st2" d="M403.6,137.8c-4.9-4.8-7.4-11.3-7.4-19.4V74.4c0-8,2.5-14.5,7.4-19.2c4.9-4.8,11.5-7.2,19.6-7.2
		c8.2,0,14.8,2.4,19.7,7.2c4.9,4.8,7.4,11.2,7.4,19.2v1.5c0,0.5-0.2,0.8-0.5,1.2c-0.3,0.3-0.7,0.5-1.2,0.5l-15.9,0.7
		c-1.1,0-1.6-0.5-1.6-1.5v-3.5c0-2.6-0.7-4.7-2.2-6.4s-3.4-2.4-5.8-2.4c-2.4,0-4.2,0.8-5.7,2.4c-1.4,1.6-2.2,3.8-2.2,6.4V120
		c0,2.6,0.7,4.7,2.2,6.3c1.4,1.6,3.3,2.4,5.7,2.4c2.4,0,4.4-0.8,5.8-2.4c1.4-1.6,2.2-3.7,2.2-6.3v-3.7c0-0.5,0.2-0.8,0.5-1.2
		c0.3-0.3,0.7-0.5,1.2-0.5l15.9,0.7c0.5,0,0.8,0.2,1.2,0.5c0.3,0.3,0.5,0.7,0.5,1.2v1.4c0,8.1-2.5,14.6-7.5,19.4
		c-5,4.8-11.5,7.3-19.7,7.3C415,145,408.5,142.6,403.6,137.8z M404.2,24.8c0-0.6,0.5-0.9,1.4-0.9h11.8c1,0,1.7,0.4,2,1.2l4.1,7.6
		c0.3,0.4,0.5,0.4,0.8,0l4.1-7.6c0.5-0.8,1.1-1.2,1.9-1.2h11.9c0.6,0,1.1,0.2,1.3,0.5c0.2,0.3,0.2,0.8-0.2,1.4l-8.9,14.1
		c-0.5,0.7-1.1,1.1-1.9,1.1h-17.5c-0.9,0-1.5-0.4-1.9-1.1l-8.5-14.1C404.3,25.2,404.2,24.9,404.2,24.8z"/>
	<path class="st2" d="M457.5,143.5c-0.3-0.3-0.5-0.7-0.5-1.2V50.7c0-0.5,0.2-0.8,0.5-1.2c0.3-0.3,0.7-0.5,1.2-0.5h15.9
		c0.5,0,0.8,0.2,1.2,0.5c0.3,0.3,0.5,0.7,0.5,1.2v91.6c0,0.5-0.2,0.8-0.5,1.2c-0.3,0.3-0.7,0.5-1.2,0.5h-15.9
		C458.2,144,457.8,143.8,457.5,143.5z"/>
	<path class="st2" d="M524.1,49.6c0.3-0.3,0.7-0.5,1.2-0.5h15.7c0.5,0,0.8,0.2,1.2,0.5c0.3,0.3,0.5,0.7,0.5,1.2v91.6
		c0,0.5-0.2,0.8-0.5,1.2c-0.3,0.3-0.7,0.5-1.2,0.5H523c-0.9,0-1.5-0.5-1.8-1.4l-16.8-52.4c-0.1-0.3-0.2-0.4-0.5-0.3
		c-0.2,0-0.3,0.2-0.3,0.5l0.1,52c0,0.5-0.2,0.8-0.5,1.2c-0.3,0.3-0.7,0.5-1.2,0.5h-15.7c-0.5,0-0.8-0.2-1.2-0.5
		c-0.3-0.3-0.5-0.7-0.5-1.2V50.7c0-0.5,0.2-0.8,0.5-1.2c0.3-0.3,0.7-0.5,1.2-0.5h17.8c0.9,0,1.5,0.5,1.8,1.4l16.9,52.4
		c0.1,0.3,0.2,0.4,0.5,0.3c0.2,0,0.3-0.2,0.3-0.5l-0.1-52C523.6,50.3,523.7,49.9,524.1,49.6z"/>
	<path class="st2" d="M551.6,143.5c-0.3-0.3-0.5-0.7-0.5-1.2V50.7c0-0.5,0.2-0.8,0.5-1.2c0.3-0.3,0.7-0.5,1.2-0.5h15.9
		c0.5,0,0.8,0.2,1.2,0.5c0.3,0.3,0.5,0.7,0.5,1.2v34.2c0,0.4,0.1,0.6,0.3,0.6c0.2,0,0.4-0.1,0.5-0.5l17.5-34.7
		c0.5-0.8,1.1-1.2,1.9-1.2h16.8c0.6,0,1.1,0.2,1.3,0.5c0.2,0.3,0.2,0.8-0.1,1.4l-20.1,39c-0.1,0.4-0.1,0.6-0.1,0.8l21.3,51.2
		c0.1,0.2,0.1,0.5,0.1,0.8c0,0.7-0.5,1.1-1.4,1.1h-16.9c-1,0-1.6-0.4-1.9-1.2l-14.1-35.5c-0.1-0.3-0.2-0.4-0.4-0.3
		c-0.2,0-0.4,0.2-0.5,0.3l-3.9,7c-0.2,0.4-0.3,0.6-0.3,0.8v27.2c0,0.5-0.2,0.8-0.5,1.2c-0.3,0.3-0.7,0.5-1.2,0.5h-15.9
		C552.3,144,551.9,143.8,551.6,143.5z"/>
	<path class="st2" d="M653.4,142.5l-2.2-13c0-0.5-0.3-0.7-0.8-0.7h-17.2c-0.5,0-0.8,0.2-0.8,0.7l-2.2,13c-0.1,1-0.7,1.5-1.8,1.5
		h-15.9c-1.2,0-1.6-0.6-1.4-1.8l19.9-91.6c0.2-1,0.8-1.5,1.8-1.5h18.3c1,0,1.6,0.5,1.8,1.5l19.8,91.6l0.1,0.5c0,0.8-0.5,1.2-1.5,1.2
		h-16.3C654.1,144,653.5,143.5,653.4,142.5z M635.7,114h12.2c0.5,0,0.6-0.2,0.5-0.7l-6.4-37c-0.1-0.3-0.2-0.4-0.4-0.4
		c-0.2,0-0.3,0.1-0.4,0.4l-6.1,37C635.1,113.8,635.3,114,635.7,114z"/>
</g>
<g>
	<path class="st2" d="M64.6,63c-0.3,0.3-0.7,0.5-1.2,0.5H35.3c-0.5,0-0.7,0.2-0.7,0.7v21.4c0,0.5,0.2,0.7,0.7,0.7h16.1
		c0.5,0,0.8,0.2,1.2,0.5c0.3,0.3,0.5,0.7,0.5,1.2V101c0,0.5-0.2,0.8-0.5,1.2c-0.3,0.3-0.7,0.5-1.2,0.5H35.3c-0.5,0-0.7,0.2-0.7,0.7
		v37c0,0.5-0.2,0.8-0.5,1.2c-0.3,0.3-0.7,0.5-1.2,0.5H17.1c-0.5,0-0.8-0.2-1.2-0.5c-0.3-0.3-0.5-0.7-0.5-1.2V48.7
		c0-0.5,0.2-0.8,0.5-1.2c0.3-0.3,0.7-0.5,1.2-0.5h46.3c0.5,0,0.8,0.2,1.2,0.5c0.3,0.3,0.5,0.7,0.5,1.2v13.1
		C65.1,62.3,65,62.7,64.6,63z"/>
	<path class="st2" d="M69.6,141.5c-0.3-0.3-0.5-0.7-0.5-1.2V48.7c0-0.5,0.2-0.8,0.5-1.2c0.3-0.3,0.7-0.5,1.2-0.5h15.9
		c0.5,0,0.8,0.2,1.2,0.5c0.3,0.3,0.5,0.7,0.5,1.2v91.6c0,0.5-0.2,0.8-0.5,1.2c-0.3,0.3-0.7,0.5-1.2,0.5H70.8
		C70.3,142,70,141.8,69.6,141.5z"/>
	<path class="st2" d="M150.7,47.6c0.3,0.3,0.5,0.7,0.5,1.2v13.1c0,0.5-0.2,0.8-0.5,1.2c-0.3,0.3-0.7,0.5-1.2,0.5h-16.9
		c-0.5,0-0.7,0.2-0.7,0.7v76.2c0,0.5-0.2,0.8-0.5,1.2c-0.3,0.3-0.7,0.5-1.2,0.5h-15.9c-0.5,0-0.8-0.2-1.2-0.5
		c-0.3-0.3-0.5-0.7-0.5-1.2V64.2c0-0.5-0.2-0.7-0.7-0.7H95.9c-0.5,0-0.8-0.2-1.2-0.5c-0.3-0.3-0.5-0.7-0.5-1.2V48.7
		c0-0.5,0.2-0.8,0.5-1.2c0.3-0.3,0.7-0.5,1.2-0.5h53.7C150,47.1,150.4,47.3,150.7,47.6z"/>
	<path class="st2" d="M196.2,47.6c0.3-0.3,0.7-0.5,1.2-0.5h15.7c0.5,0,0.8,0.2,1.2,0.5c0.3,0.3,0.5,0.7,0.5,1.2v91.6
		c0,0.5-0.2,0.8-0.5,1.2c-0.3,0.3-0.7,0.5-1.2,0.5h-17.9c-0.9,0-1.5-0.5-1.8-1.4l-16.8-52.4c-0.1-0.3-0.2-0.4-0.5-0.3
		c-0.2,0-0.3,0.2-0.3,0.5l0.1,52c0,0.5-0.2,0.8-0.5,1.2c-0.3,0.3-0.7,0.5-1.2,0.5h-15.7c-0.5,0-0.8-0.2-1.2-0.5
		c-0.3-0.3-0.5-0.7-0.5-1.2V48.7c0-0.5,0.2-0.8,0.5-1.2c0.3-0.3,0.7-0.5,1.2-0.5h17.8c0.9,0,1.5,0.5,1.8,1.4l16.9,52.4
		c0.1,0.3,0.2,0.4,0.5,0.3c0.2,0,0.3-0.2,0.3-0.5l-0.1-52C195.8,48.3,195.9,47.9,196.2,47.6z"/>
	<path class="st2" d="M272.5,63c-0.3,0.3-0.7,0.5-1.2,0.5H243c-0.5,0-0.7,0.2-0.7,0.7v21.4c0,0.5,0.2,0.7,0.7,0.7h16.3
		c0.5,0,0.8,0.2,1.2,0.5c0.3,0.3,0.5,0.7,0.5,1.2V101c0,0.5-0.2,0.8-0.5,1.2c-0.3,0.3-0.7,0.5-1.2,0.5H243c-0.5,0-0.7,0.2-0.7,0.7
		v21.5c0,0.5,0.2,0.7,0.7,0.7h28.3c0.5,0,0.8,0.2,1.2,0.5c0.3,0.3,0.5,0.7,0.5,1.2v13.1c0,0.5-0.2,0.8-0.5,1.2
		c-0.3,0.3-0.7,0.5-1.2,0.5h-46.5c-0.5,0-0.8-0.2-1.2-0.5c-0.3-0.3-0.5-0.7-0.5-1.2V48.7c0-0.5,0.2-0.8,0.5-1.2
		c0.3-0.3,0.7-0.5,1.2-0.5h46.5c0.5,0,0.8,0.2,1.2,0.5c0.3,0.3,0.5,0.7,0.5,1.2v13.1C273,62.3,272.8,62.7,272.5,63z"/>
	<path class="st2" d="M289.8,139.9c-4-2.1-7-5-9.2-8.7c-2.2-3.7-3.3-8.1-3.3-12.9v-3.9c0-0.5,0.2-0.8,0.5-1.2
		c0.3-0.3,0.7-0.5,1.2-0.5h15.6c0.5,0,0.8,0.2,1.2,0.5c0.3,0.3,0.5,0.7,0.5,1.2v3c0,2.8,0.7,5.1,2.2,6.8c1.4,1.7,3.3,2.6,5.4,2.6
		c2.2,0,4-0.8,5.4-2.4c1.4-1.6,2.2-3.7,2.2-6.4c0-2.7-0.9-5-2.7-7c-1.8-1.9-5.3-4.8-10.6-8.6c-4.5-3.3-8.2-6.1-11-8.7
		c-2.8-2.5-5.2-5.6-7.2-9.4c-2-3.7-3-8-3-12.9c0-7.7,2.4-13.8,7.2-18.4c4.8-4.6,11.1-6.9,19-6.9c7.9,0,14.3,2.4,19.2,7.2
		c4.8,4.8,7.3,11.1,7.3,18.8v3.3c0,0.5-0.2,0.8-0.5,1.2c-0.3,0.3-0.7,0.5-1.2,0.5h-15.6c-0.5,0-0.8-0.2-1.2-0.5
		c-0.3-0.3-0.5-0.7-0.5-1.2v-3.7c0-2.8-0.7-5-2.1-6.7c-1.4-1.7-3.2-2.5-5.5-2.5c-2.2,0-3.9,0.8-5.3,2.4c-1.4,1.6-2,3.8-2,6.6
		c0,2.7,0.9,5.1,2.6,7.2c1.7,2.1,5.1,5,10.2,8.7c5.6,4.2,9.8,7.5,12.7,10.1c2.8,2.6,5.1,5.4,6.6,8.5c1.6,3.1,2.4,6.8,2.4,11.2
		c0,8-2.4,14.3-7.3,19c-4.9,4.7-11.3,7-19.2,7C298.4,143.1,293.8,142,289.8,139.9z"/>
	<path class="st2" d="M346.6,139.9c-4-2.1-7-5-9.2-8.7c-2.2-3.7-3.3-8.1-3.3-12.9v-3.9c0-0.5,0.2-0.8,0.5-1.2
		c0.3-0.3,0.7-0.5,1.2-0.5h15.6c0.5,0,0.8,0.2,1.2,0.5c0.3,0.3,0.5,0.7,0.5,1.2v3c0,2.8,0.7,5.1,2.2,6.8c1.4,1.7,3.3,2.6,5.4,2.6
		c2.2,0,4-0.8,5.4-2.4c1.4-1.6,2.2-3.7,2.2-6.4c0-2.7-0.9-5-2.7-7c-1.8-1.9-5.3-4.8-10.6-8.6c-4.5-3.3-8.2-6.1-11-8.7
		c-2.8-2.5-5.2-5.6-7.2-9.4c-2-3.7-3-8-3-12.9c0-7.7,2.4-13.8,7.2-18.4c4.8-4.6,11.1-6.9,19-6.9c7.9,0,14.3,2.4,19.2,7.2
		c4.8,4.8,7.3,11.1,7.3,18.8v3.3c0,0.5-0.2,0.8-0.5,1.2c-0.3,0.3-0.7,0.5-1.2,0.5h-15.6c-0.5,0-0.8-0.2-1.2-0.5
		c-0.3-0.3-0.5-0.7-0.5-1.2v-3.7c0-2.8-0.7-5-2.1-6.7c-1.4-1.7-3.2-2.5-5.5-2.5c-2.2,0-3.9,0.8-5.3,2.4c-1.4,1.6-2,3.8-2,6.6
		c0,2.7,0.9,5.1,2.6,7.2c1.7,2.1,5.1,5,10.2,8.7c5.6,4.2,9.8,7.5,12.7,10.1c2.8,2.6,5.1,5.4,6.6,8.5c1.6,3.1,2.4,6.8,2.4,11.2
		c0,8-2.4,14.3-7.3,19c-4.9,4.7-11.3,7-19.2,7C355.2,143.1,350.6,142,346.6,139.9z"/>
</g>
</svg>
